# xmcd CD database file
#
# Track frame offsets:
#	150
#	18100
#	45717
#	72980
#	92347
#	114685
#	137050
#	159097
#	184392
#	206375
#	226147
#	248740
#
# Disc length: 3646 seconds
#
# Revision: 0
# Processed by: cddbd v1.5PL3 Copyright (c) Steve Scherf et al.
# Submitted via: CDex 1.51
#
DISCID=930e3c0c
DTITLE=Various Artist - Private Sounds vol.1
DYEAR=2003
DGENRE=Jazz
TTITLE0=コミカル　ライフ - ROCO
TTITLE1=時計の針が左にまわったら - COOL DRIVE
TTITLE2=come here - PE'Z
TTITLE3=カメラと口笛 - /sabado fiesta
TTITLE4=つむじ風、ほほをなで - nitt
TTITLE5=ドミノ - AMY ANNAPURNA
TTITLE6=シラフ - COOL DRIVE
TTITLE7=太陽の季節 - コーヒーカラー
TTITLE8=寝ても覚めても夢を見る - nitt
TTITLE9=LA YELLOW HEAD - PE'Z
TTITLE10=Corrida - Scat Firework
TTITLE11=MY WORLD - CAMERAMANS
EXTD=YEAR: 2003
EXTT0=
EXTT1=
EXTT2=
EXTT3=
EXTT4=
EXTT5=
EXTT6=
EXTT7=
EXTT8=
EXTT9=
EXTT10=
EXTT11=
PLAYORDER=
